<svg t="1646903730652" class="icon" viewBox="0 0 1024 1024" version="1.1" xmlns="http://www.w3.org/2000/svg" p-id="6304" data-darkreader-inline-fill="" width="200" height="200"><path d="M708 665.5a54 54 0 1 0 54 54 54 54 0 0 0-54-54z m12-122H304a176 176 0 0 0 0 352h416a176 176 0 0 0 0-352z m0 280H304a104 104 0 0 1 0-208h416a104 104 0 0 1 0 208z m-404-465a54 54 0 1 0-54-54 54 54 0 0 0 54 54z m-12 122h416a176 176 0 0 0 0-352H304a176 176 0 0 0 0 352z m0-280h416a104 104 0 0 1 0 208H304a104 104 0 0 1 0-208z" p-id="6305"></path></svg>