<svg t="1649240194357" class="icon" viewBox="0 0 1024 1024" version="1.1" xmlns="http://www.w3.org/2000/svg" p-id="2046" data-darkreader-inline-fill="" width="200" height="200"><path d="M292.768415 449.693955c2.490727 0.514723 4.989641 0.98749 7.468089 1.551332 28.956495 6.587022 48.828079 32.893154 47.590901 62.97938-1.187035 28.850072-23.508413 53.386908-52.383044 57.604976-0.904603 0.132006-1.784646 0.432859-2.675946 0.654916-4.186346 0-8.372691 0-12.558014 0-0.773619-0.208754-1.535983-0.497327-2.322905-0.615007-26.221198-3.89061-46.433542-23.107277-51.662637-49.134047-0.360204-1.792832-0.753153-3.578502-1.130753-5.368264 0-4.186346 0-8.372691 0-12.558014 0.234337-0.992607 0.537236-1.972934 0.694825-2.976798 3.901867-24.797779 21.982664-44.51075 46.302559-50.418296 2.687202-0.652869 5.412266-1.151219 8.119935-1.722224C284.395724 449.693955 288.582069 449.693955 292.768415 449.693955z" p-id="2047"></path><path d="M505.228271 572.485583c-2.490727-0.514723-4.990664-0.98749-7.469112-1.550309-28.956495-6.588045-48.828079-32.894178-47.590901-62.980403 1.187035-28.850072 23.50739-53.386908 52.384068-57.603953 0.904603-0.132006 1.784646-0.432859 2.675946-0.655939 4.186346 0 8.371668 0 12.55699 0 2.490727 0.514723 4.990664 0.98749 7.469112 1.551332 28.956495 6.587022 48.829102 32.893154 47.590901 62.97938-1.186012 28.850072-23.50739 53.386908-52.383044 57.604976-0.904603 0.132006-1.784646 0.432859-2.675946 0.654916C513.598916 572.485583 509.413594 572.485583 505.228271 572.485583z" p-id="2048"></path><path d="M729.919706 572.485583c-2.490727-0.514723-4.990664-0.98749-7.469112-1.550309-28.957519-6.588045-48.829102-32.894178-47.590901-62.980403 1.186012-28.850072 23.50739-53.386908 52.383044-57.603953 0.904603-0.132006 1.784646-0.432859 2.675946-0.655939 4.186346 0 8.371668 0 12.55699 0 0.774643 0.208754 1.535983 0.49835 2.323928 0.615007 26.221198 3.89061 46.433542 23.108301 51.661613 49.134047 0.361227 1.792832 0.753153 3.579525 1.130753 5.368264 0 4.185322 0 8.371668 0 12.558014-0.234337 0.991584-0.536212 1.972934-0.694825 2.976798-3.901867 24.797779-21.982664 44.51075-46.302559 50.418296-2.687202 0.653893-5.411243 1.151219-8.119935 1.722224C738.291374 572.485583 734.106052 572.485583 729.919706 572.485583z" p-id="2049"></path></svg>