<svg t="1649744082888" class="icon" viewBox="0 0 1024 1024" version="1.1" xmlns="http://www.w3.org/2000/svg" p-id="14226" data-darkreader-inline-fill="" width="200" height="200"><path d="M886.26 138.29H169.54A60.62 60.62 0 0 0 109 198.84V669.6a60.62 60.62 0 0 0 60.55 60.55h333.62V837.6H136.28v27.29h783.24V837.6H557.75V730.15h328.51a60.62 60.62 0 0 0 60.55-60.55V198.84a60.62 60.62 0 0 0-60.55-60.55z m6 531.31a5.91 5.91 0 0 1-6 6H169.54a5.91 5.91 0 0 1-6-6V198.84a5.91 5.91 0 0 1 6-6h716.72a5.91 5.91 0 0 1 6 6z" p-id="14227"></path><path d="M659.75 416.26L481.62 313.38a21 21 0 0 0-20.92 0.1 20.68 20.68 0 0 0-10.41 18.06v205.53a20.68 20.68 0 0 0 10.41 18.06 21 21 0 0 0 21 0.06l178-102.84a20.85 20.85 0 0 0 0-36.1zM477.58 526V342.56l158.84 91.74z" p-id="14228"></path></svg>