<svg t="1649500602927" class="icon" viewBox="0 0 1024 1024" version="1.1" xmlns="http://www.w3.org/2000/svg" p-id="3872" data-darkreader-inline-fill="" width="200" height="200"><path d="M345.066667 427.392a11.456 11.456 0 0 1 9.066666-4.949333h137.621334V127.744c0-23.424 14.336-42.410667 32-42.410667 17.685333 0 32 18.986667 32 42.410667v294.698667h139.904c5.184 0 9.856 4.117333 11.84 10.453333 1.984 6.357333 0.896 13.653333-2.773334 18.496L533.973333 677.696a11.477333 11.477333 0 0 1-9.066666 4.970667 11.477333 11.477333 0 0 1-9.045334-4.970667l-170.752-226.304a20.074667 20.074667 0 0 1-3.776-11.989333c0-4.48 1.344-8.810667 3.733334-12.010667z"  p-id="3873" data-darkreader-inline-fill="" style="--darkreader-inline-fill:#202020;"></path><path d="M903.04 196.16L728.874667 110.08a32.021333 32.021333 0 0 0-28.373334 57.386667L874.666667 253.546667v502.826666l-352 147.541334L170.666667 756.394667V253.546667l174.186666-86.08a32 32 0 0 0-28.330666-57.386667L142.314667 196.16A63.658667 63.658667 0 0 0 106.666667 253.546667v502.826666c0 25.898667 15.424 49.066667 39.253333 59.029334l364.394667 152.704c7.914667 3.328 16.853333 3.328 24.768 0l364.352-152.682667A63.850667 63.850667 0 0 0 938.666667 756.394667V253.546667a63.68 63.68 0 0 0-35.626667-57.386667z"  p-id="3874" data-darkreader-inline-fill="" style="--darkreader-inline-fill:#202020;"></path></svg>